<svg width="1098" height="271" viewBox="0 0 1098 271" fill="none" xmlns="http://www.w3.org/2000/svg">
<path d="M0.100006 0.5H156.7V270.5H0.100006V0.5Z" fill="white"/>
<path d="M253.69 131.06H222.44V162.31C222.44 170.937 225.49 178.303 231.59 184.41C237.697 190.51 245.063 193.56 253.69 193.56V217C238.55 217 225.65 211.67 214.99 201.01C204.33 190.35 199 177.45 199 162.31V76.38H222.44V107.63H253.69V131.06ZM269.31 217V162.31C269.31 147.177 274.64 134.28 285.3 123.62C295.96 112.96 308.86 107.63 324 107.63V131.06C315.373 131.06 308.01 134.113 301.91 140.22C295.803 146.32 292.75 153.683 292.75 162.31V217H269.31ZM394.31 217C379.177 217 366.28 211.67 355.62 201.01C344.96 190.35 339.63 177.45 339.63 162.31C339.63 147.177 344.96 134.28 355.62 123.62C366.28 112.96 379.177 107.63 394.31 107.63C409.45 107.63 422.35 112.96 433.01 123.62C443.67 134.28 449 147.177 449 162.31C449 177.45 443.67 190.35 433.01 201.01C422.35 211.67 409.45 217 394.31 217ZM394.31 193.56C402.937 193.56 410.303 190.51 416.41 184.41C422.51 178.303 425.56 170.937 425.56 162.31C425.56 153.683 422.51 146.32 416.41 140.22C410.303 134.113 402.937 131.06 394.31 131.06C385.683 131.06 378.32 134.113 372.22 140.22C366.113 146.32 363.06 153.683 363.06 162.31C363.06 170.937 366.113 178.303 372.22 184.41C378.32 190.51 385.683 193.56 394.31 193.56ZM488.06 162.31V217H464.63V162.31C464.63 147.177 469.96 134.28 480.62 123.62C491.28 112.96 504.177 107.63 519.31 107.63C534.45 107.63 547.35 112.96 558.01 123.62C568.67 134.28 574 147.177 574 162.31V217H550.56V162.31C550.56 153.683 547.51 146.32 541.41 140.22C535.303 134.113 527.937 131.06 519.31 131.06C510.683 131.06 503.32 134.113 497.22 140.22C491.113 146.32 488.06 153.683 488.06 162.31ZM589.63 107.63H613.06V217H589.63V107.63ZM601.34 99.81C598.087 99.81 595.32 98.67 593.04 96.39C590.767 94.1167 589.63 91.35 589.63 88.09C589.63 84.8367 590.767 82.07 593.04 79.79C595.32 77.5167 598.087 76.38 601.34 76.38C604.6 76.38 607.367 77.5167 609.64 79.79C611.92 82.07 613.06 84.8367 613.06 88.09C613.06 91.35 611.92 94.1167 609.64 96.39C607.367 98.67 604.6 99.81 601.34 99.81ZM722.19 200.89L722.07 201.01C711.41 211.67 698.513 217 683.38 217C668.24 217 655.34 211.67 644.68 201.01C634.02 190.35 628.69 177.45 628.69 162.31C628.69 147.177 634.02 134.28 644.68 123.62C655.34 112.96 668.24 107.63 683.38 107.63C698.513 107.63 711.41 112.96 722.07 123.62L722.19 123.74L705.59 140.34L705.47 140.22C699.363 134.113 692 131.06 683.38 131.06C674.753 131.06 667.387 134.113 661.28 140.22C655.18 146.32 652.13 153.683 652.13 162.31C652.13 170.937 655.18 178.303 661.28 184.41C667.387 190.51 674.753 193.56 683.38 193.56C692 193.56 699.363 190.51 705.47 184.41L705.59 184.29L722.19 200.89ZM843.53 115.8C846.137 95.2133 842.11 79.59 831.45 68.93C820.79 58.27 807.89 52.94 792.75 52.94C777.61 52.94 764.71 58.27 754.05 68.93C743.39 79.59 738.06 92.49 738.06 107.63H761.5C761.5 99.0033 764.553 91.6367 770.66 85.53C776.76 79.43 784.123 76.38 792.75 76.38C801.377 76.38 808.74 79.43 814.84 85.53C820.947 91.6367 822.697 102.053 820.09 116.78C817.49 131.513 790.147 164.92 738.06 217H847.44V193.56H792.75C824.003 162.313 840.93 136.393 843.53 115.8ZM972.44 170.13H949V217H925.56V170.13H863.06V52.94H886.5V146.69H925.56V52.94H949V146.69H972.44V170.13ZM988.06 76.38V52.94H1097.44L1015.65 217H988.06L1058.38 76.38H988.06Z" fill="white"/>
<path d="M121.9 110.8H71.9V160.8C71.9 174.6 76.7833 186.383 86.55 196.15C96.3167 205.917 108.1 210.8 121.9 210.8V248.3C97.68 248.3 77.0433 239.77 59.99 222.71C42.93 205.657 34.4 185.02 34.4 160.8V23.3H71.9V73.3H121.9V110.8Z" fill="black"/>
</svg>
