<svg version="1.2" xmlns="http://www.w3.org/2000/svg" viewBox="0 0 901 169" width="901" height="169"><style></style><path  d="m56.7 81.1h-31.3v31.2q0 13 9.2 22.1 9.1 9.2 22.1 9.2v23.4q-22.7 0-38.7-16-16-16-16-38.7v-85.9h23.4v31.2h31.3zm15.6 86v-54.7q0-22.7 16-38.7 16-16 38.7-16v23.4q-12.9 0-22.1 9.2-9.2 9.1-9.2 22.1v54.7zm125 0q-22.7 0-38.6-16-16-16-16-38.7 0-22.7 16-38.7 15.9-16 38.6-16 22.8 0 38.7 16 16 16 16 38.7 0 22.7-16 38.7-15.9 16-38.7 16zm0-23.5q13 0 22.1-9.1 9.2-9.2 9.2-22.1 0-13-9.2-22.1-9.1-9.2-22.1-9.2-12.9 0-22 9.2-9.2 9.1-9.2 22.1 0 12.9 9.2 22.1 9.1 9.1 22 9.1zm93.8-31.2v54.7h-23.4v-54.7q0-22.7 16-38.7 15.9-16 38.6-16 22.8 0 38.7 16 16 16 16 38.7v54.7h-23.4v-54.7q0-13-9.2-22.1-9.1-9.2-22.1-9.2-12.9 0-22 9.2-9.2 9.1-9.2 22.1zm101.6-54.7h23.4v109.4h-23.4zm11.7-7.8q-4.9 0-8.3-3.5-3.4-3.4-3.4-8.3 0-4.9 3.4-8.3 3.4-3.4 8.3-3.4 4.9 0 8.3 3.4 3.4 3.4 3.4 8.3 0 4.9-3.4 8.3-3.4 3.5-8.3 3.5zm120.8 101l-0.1 0.1q-16 16-38.7 16-22.7 0-38.7-16-16-15.9-16-38.6 0-22.8 16-38.7 16-16 38.7-16 22.7 0 38.7 16l0.1 0.1-16.6 16.6-0.1-0.1q-9.1-9.2-22.1-9.2-12.9 0-22.1 9.2-9.1 9.1-9.1 22.1 0 12.9 9.1 22 9.2 9.2 22.1 9.2 13 0 22.1-9.2l0.1-0.1zm121.4-85.1q3.9-30.8-12.1-46.8-16-16-38.7-16-22.7 0-38.7 16-16 16-16 38.7h23.4q0-13 9.2-22.1 9.1-9.2 22.1-9.2 12.9 0 22.1 9.2 9.1 9.1 5.2 31.2-3.9 22.1-82 100.2h109.4v-23.4h-54.7q46.9-46.9 50.8-77.8zm128.9 54.4h-23.5v46.8h-23.4v-46.8h-62.5v-117.2h23.4v93.7h39.1v-93.7h23.4v93.7h23.5zm15.6-93.7v-23.5h109.4l-81.8 164.1h-27.6l70.3-140.6z"/></svg>